
<svg
        width="500"
        height="500"
        viewBox="0 0 132.29166 132.29167"
        version="1.1"
        id="svg4097"
        inkscape:version="1.2.2 (732a01da63, 2022-12-09)"
        sodipodi:docname="logo-masoterapia.svg"
        xml:space="preserve"
        inkscape:export-filename="logo-masoterapia.jpg"
        inkscape:export-xdpi="200"
        inkscape:export-ydpi="200"
        xmlns:inkscape="http://www.inkscape.org/namespaces/inkscape"
        xmlns:sodipodi="http://sodipodi.sourceforge.net/DTD/sodipodi-0.dtd"
        xmlns="http://www.w3.org/2000/svg"
        xmlns:svg="http://www.w3.org/2000/svg"><sodipodi:namedview
     id="namedview4099"
     pagecolor="#ffffff"
     bordercolor="#000000"
     borderopacity="0.25"
     inkscape:showpageshadow="2"
     inkscape:pageopacity="0.0"
     inkscape:pagecheckerboard="0"
     inkscape:deskcolor="#d1d1d1"
     inkscape:document-units="mm"
     showgrid="false"
     inkscape:zoom="2.5877449"
     inkscape:cx="59.511275"
     inkscape:cy="239.39763"
     inkscape:window-width="3840"
     inkscape:window-height="2066"
     inkscape:window-x="1609"
     inkscape:window-y="-11"
     inkscape:window-maximized="1"
     inkscape:current-layer="layer2" /><defs
        id="defs4094"><rect
       x="85.527912"
       y="382.27971"
       width="182.53241"
       height="87.713929"
       id="rect4462" /></defs><g
        inkscape:groupmode="layer"
        id="layer2"
        inkscape:label="Layer 2"><rect
       style="fill:#e3dbde;fill-opacity:1;stroke-width:0.264583"
       id="rect7757"
       width="132.61143"
       height="132.71368"
       x="0"
       y="0.10224475" /></g><g
        inkscape:label="Layer 1"
        inkscape:groupmode="layer"
        id="layer1"><path
       style="fill:#bcb2cb;fill-opacity:1;stroke-width:0.148258"
       d="m 91.12875,83.593087 c -0.163088,-0.04011 -0.363238,-0.125471 -0.444766,-0.189739 -0.08158,-0.0643 -0.994986,-0.454393 -2.029858,-0.866933 -1.918678,-0.76486 -3.974614,-1.769562 -3.974614,-1.942334 0,-0.05273 -0.240276,-0.18272 -0.533942,-0.288903 -0.293671,-0.106201 -0.646613,-0.303065 -0.784316,-0.437497 -0.137721,-0.134434 -0.564612,-0.393669 -0.948654,-0.576077 -0.384049,-0.182411 -0.698266,-0.399237 -0.698266,-0.481838 0,-0.0826 -0.07958,-0.15019 -0.176735,-0.15019 -0.242862,0 -2.491923,-1.488765 -2.491923,-1.649535 0,-0.07127 -0.102165,-0.129568 -0.227042,-0.129568 -0.124874,0 -0.265441,-0.100066 -0.312376,-0.222386 -0.04696,-0.122313 -0.161594,-0.22239 -0.254801,-0.22239 -0.0932,-6e-6 -0.355777,-0.233514 -0.583491,-0.518909 -0.22772,-0.285391 -0.479787,-0.518902 -0.560147,-0.518902 -0.08037,0 -0.986413,-0.867311 -2.013452,-1.927359 -1.027037,-1.06005 -1.94664,-1.927366 -2.043565,-1.927366 -0.09692,0 -0.326683,-0.203503 -0.510571,-0.452223 -0.183889,-0.248727 -0.496659,-0.513945 -0.695044,-0.589369 -0.198387,-0.07542 -0.360702,-0.205507 -0.360702,-0.289066 0,-0.08356 -0.102167,-0.151926 -0.227043,-0.151926 -0.124873,0 -0.26544,-0.100067 -0.312377,-0.222392 -0.04696,-0.122313 -0.151298,-0.222385 -0.231911,-0.222385 -0.0806,0 -0.337731,-0.136113 -0.571368,-0.302482 -0.233638,-0.166361 -1.396297,-0.800276 -2.583697,-1.408708 -2.198743,-1.126646 -3.248329,-1.735889 -3.605018,-2.092579 -0.166782,-0.166782 -0.159487,-0.238944 0.04477,-0.443224 0.226503,-0.226496 0.288337,-0.22034 0.862061,0.08589 0.339929,0.181448 1.1856,0.551064 1.879265,0.821381 1.675524,0.652927 3.855743,1.713492 3.855743,1.875612 0,0.07139 0.07876,0.129778 0.174984,0.129778 0.24328,0 2.048895,1.191242 2.048895,1.351742 0,0.07196 0.0924,0.130841 0.205338,0.130841 0.112934,0 0.314625,0.166794 0.448194,0.370648 0.133571,0.203854 0.343489,0.370648 0.466479,0.370648 0.122991,0 0.262025,0.100066 0.308958,0.222385 0.04696,0.122319 0.161601,0.222391 0.254802,0.222396 0.0932,0 0.355777,0.233508 0.583496,0.518905 0.227715,0.285395 0.49458,0.518904 0.593032,0.518904 0.09845,6e-6 0.365319,0.233514 0.593033,0.518904 0.22772,0.285396 0.50359,0.518905 0.613049,0.518905 0.109469,0 0.308303,0.166788 0.441873,0.370641 0.133575,0.20386 0.339397,0.370649 0.457389,0.370649 0.117993,0 0.362513,0.20015 0.54337,0.444774 0.180864,0.244632 0.418462,0.444778 0.527998,0.444778 0.109536,0 0.23756,0.100076 0.284495,0.222391 0.04696,0.122313 0.168534,0.222384 0.270217,0.222384 0.101673,0 0.364844,0.166793 0.584811,0.370647 0.219959,0.203855 0.433513,0.370648 0.474556,0.370648 0.04103,0 0.457104,0.259738 0.924579,0.577192 1.169838,0.794423 4.663795,2.791501 5.656332,3.233055 1.496791,0.665877 1.703547,0.752111 2.068269,0.862566 1.54346,0.467464 3.418137,1.771411 3.418137,2.377525 0,0.313031 -0.554275,0.813483 -0.875156,0.790174 -0.13024,-0.0093 -0.370211,-0.04999 -0.533296,-0.09008 z m -42.994999,-2.25428 c -0.656336,-0.158395 -1.082141,-0.420301 -1.351378,-0.83121 -0.274915,-0.419571 -0.614679,-0.470569 -0.863946,-0.129671 -0.108946,0.148986 -0.598263,0.297113 -1.32941,0.402448 -1.0395,0.149755 -1.175893,0.140867 -1.342884,-0.08752 -0.102231,-0.139807 -0.238796,-0.254192 -0.30349,-0.254192 -0.223754,0 -1.259713,-1.238248 -1.509364,-1.804099 -0.281489,-0.638001 -0.352068,-0.665295 -0.859911,-0.332543 -0.388964,0.254857 -1.009907,0.191442 -1.730708,-0.176751 -0.452108,-0.230943 -2.050696,-1.786713 -2.050696,-1.995774 0,-0.07623 -0.06075,-0.138589 -0.135003,-0.138589 -0.07425,0 -0.497793,-0.583768 -0.941203,-1.297263 -0.715885,-1.151935 -1.133074,-1.885299 -2.129596,-3.743531 -0.153053,-0.285396 -0.361673,-0.572255 -0.4636,-0.637467 -0.101925,-0.0652 -0.185323,-0.208182 -0.185323,-0.317718 0,-0.109537 -0.100077,-0.23756 -0.222386,-0.284501 -0.122317,-0.04695 -0.22239,-0.185967 -0.22239,-0.308959 0,-0.122989 -0.166792,-0.332906 -0.370647,-0.466483 -0.203856,-0.13357 -0.370647,-0.333717 -0.370647,-0.444777 0,-0.111048 -0.16679,-0.311198 -0.370646,-0.444774 -0.203854,-0.133572 -0.370647,-0.333716 -0.370647,-0.444777 0,-0.11105 -0.166792,-0.3112 -0.370648,-0.444776 -0.203855,-0.133571 -0.370647,-0.332908 -0.370647,-0.442976 0,-0.110063 -0.133431,-0.271528 -0.296515,-0.358809 -0.163084,-0.08728 -0.296518,-0.249281 -0.296518,-0.360001 0,-0.110723 -0.100076,-0.239711 -0.222387,-0.28665 -0.122314,-0.04695 -0.222389,-0.187505 -0.222389,-0.312378 0,-0.124874 -0.06197,-0.227042 -0.137726,-0.227042 -0.212763,0 -1.466089,-2.091027 -1.964856,-3.278134 -0.383563,-0.912908 -0.436332,-1.193882 -0.372381,-1.982869 l 0.0745,-0.919245 -0.931921,-0.319824 c -0.512556,-0.175904 -1.005423,-0.319824 -1.095256,-0.319824 -0.27315,0 -2.754622,1.243159 -2.881476,1.443552 -0.06521,0.103017 -0.201779,0.18729 -0.303491,0.18729 -0.225419,0 -1.282922,1.060423 -1.282922,1.286463 0,0.08911 -0.169769,0.273259 -0.377263,0.409218 -0.207496,0.135955 -0.439354,0.410491 -0.515235,0.610081 -0.07588,0.199592 -0.206341,0.362893 -0.289901,0.362893 -0.08356,0 -0.15193,0.06541 -0.15193,0.145382 0,0.07997 -0.224399,0.496934 -0.498665,0.926613 -0.274266,0.429681 -0.852057,1.515119 -1.283984,2.412084 -0.431925,0.896966 -0.932353,1.781005 -1.11206,1.96453 l -0.326746,0.333675 -0.406768,-0.319965 c -0.375686,-0.295513 -0.399364,-0.375771 -0.309867,-1.050429 0.0533,-0.401764 0.235366,-1.100556 0.404602,-1.552879 0.342103,-0.914348 1.280579,-2.562488 1.459123,-2.562488 0.06317,0 0.154665,-0.158607 0.203319,-0.352454 0.04866,-0.193851 0.256035,-0.462252 0.460847,-0.596455 0.204812,-0.134198 0.372389,-0.302273 0.372389,-0.373501 0,-0.16899 2.066812,-2.235797 2.2358,-2.235797 0.07123,0 0.239302,-0.167579 0.373501,-0.372391 0.134198,-0.204813 0.397774,-0.410981 0.585726,-0.458151 0.187949,-0.04718 0.375404,-0.173535 0.416564,-0.280796 0.04116,-0.107262 0.279497,-0.23998 0.529634,-0.294922 0.250136,-0.05492 0.454792,-0.187094 0.454792,-0.293679 0,-0.109471 -0.886904,-0.55875 -2.038556,-1.032664 -1.121207,-0.461379 -2.490012,-1.106395 -3.041791,-1.433375 -0.883147,-0.523337 -0.977121,-0.620614 -0.785066,-0.812672 0.192056,-0.192054 0.283647,-0.183078 0.76517,0.07501 0.676999,0.362853 6.058113,2.099913 7.7689,2.507857 0.693109,0.165275 1.410311,0.346065 1.593781,0.401753 0.299414,0.09088 0.334064,0.05015 0.338296,-0.397875 0.0025,-0.274525 0.102669,-0.628637 0.222388,-0.786924 0.176353,-0.233155 0.217674,-0.243202 0.217674,-0.05289 0,0.129177 0.0907,0.269679 0.201608,0.312226 0.328026,0.125876 0.518812,1.265293 0.463808,2.769976 -0.05885,1.610317 0.193688,2.581085 1.052865,4.047045 0.278081,0.474474 0.505598,0.889026 0.505598,0.921223 0,0.03222 0.166791,0.238519 0.370646,0.458482 0.203856,0.219965 0.370646,0.483133 0.370646,0.584813 0,0.101674 0.100077,0.223276 0.222388,0.270216 0.122315,0.04696 0.222389,0.185968 0.222389,0.308959 0,0.122991 0.166793,0.332908 0.370649,0.466485 0.203855,0.133568 0.370647,0.327336 0.370647,0.430592 0,0.103259 0.233504,0.365845 0.518903,0.58353 0.285398,0.217683 0.518904,0.490119 0.518904,0.605415 0,0.115294 0.133434,0.281039 0.29652,0.368317 0.163084,0.08728 0.296516,0.256417 0.296516,0.375866 0,0.119444 0.06815,0.217167 0.151437,0.217167 0.08328,0 0.232588,0.183469 0.331772,0.407715 0.09918,0.224239 0.255695,0.474423 0.347798,0.555965 0.09211,0.08154 0.490719,0.782067 0.885813,1.55672 0.890633,1.746255 1.920448,3.49807 2.381646,4.051426 0.192112,0.230493 0.349292,0.502408 0.349292,0.604251 0,0.255652 0.560571,0.732435 1.208477,1.027855 0.657437,0.299759 1.60844,0.330857 1.60844,0.05256 0,-0.106813 -0.236698,-0.674681 -0.525994,-1.261913 -0.289299,-0.587233 -0.680983,-1.550617 -0.870413,-2.140853 -0.189431,-0.590237 -0.509791,-1.440099 -0.711912,-1.888578 -0.202119,-0.448481 -0.587892,-1.382512 -0.857273,-2.075625 -0.269383,-0.693104 -0.546278,-1.323575 -0.615329,-1.401042 -0.06906,-0.07745 -0.125546,-0.227575 -0.125546,-0.33358 0,-0.106004 -0.103927,-0.309493 -0.230943,-0.452189 -0.328972,-0.369589 -1.69642,-2.541519 -1.69642,-2.694445 0,-0.0703 -0.100077,-0.166214 -0.222388,-0.213149 -0.122313,-0.04695 -0.222386,-0.180372 -0.222386,-0.29652 0,-0.116149 -0.100078,-0.24958 -0.22239,-0.296519 -0.122314,-0.04696 -0.222388,-0.163471 -0.222388,-0.258964 0,-0.0955 -0.110915,-0.254741 -0.246476,-0.353864 -0.157799,-0.115383 -0.209591,-0.276349 -0.143956,-0.447394 0.09613,-0.250516 0.120729,-0.247618 0.394735,0.0465 0.160719,0.172509 0.292216,0.381165 0.292216,0.463676 0,0.0825 0.200149,0.297993 0.444775,0.478855 0.244628,0.180859 0.444777,0.41402 0.444777,0.518126 0,0.104112 0.133431,0.260703 0.296516,0.347983 0.163084,0.08728 0.296518,0.219622 0.296518,0.294098 0,0.07447 0.150111,0.297954 0.333582,0.496629 0.968901,1.049206 3.138296,5.320783 3.944119,7.76605 0.237305,0.720102 0.699792,1.874828 1.027746,2.566051 0.869401,1.832426 1.217934,2.630685 1.217934,2.789489 0,0.0773 0.100077,0.178935 0.222386,0.22587 0.122314,0.04696 0.22239,0.171219 0.22239,0.27619 0,0.617167 2.086266,0.689928 2.806607,0.09788 0.323793,-0.266127 0.343623,-0.344181 0.195526,-0.769636 -0.09065,-0.260412 -0.278506,-0.940488 -0.417461,-1.511281 -0.138955,-0.570797 -0.607373,-1.738333 -1.040925,-2.594527 -0.798214,-1.576331 -1.940746,-4.29098 -2.433549,-5.782087 -0.47137,-1.42626 -1.34074,-3.574779 -1.926351,-4.760669 -0.432091,-0.875018 -0.519052,-1.166634 -0.365464,-1.225571 0.199246,-0.07645 0.809478,0.733288 0.809478,1.074136 0,0.09231 0.06184,0.167824 0.137401,0.167824 0.07557,0 0.232972,0.183469 0.349784,0.407715 0.116812,0.22424 0.519376,0.996422 0.89459,1.715957 0.375211,0.719538 1.059466,2.254017 1.520572,3.409951 0.461101,1.155937 1.228913,2.916863 1.706248,3.913178 0.477336,0.996308 0.97661,2.163849 1.109499,2.594527 1.175416,3.809394 1.244359,3.957708 1.981657,4.263109 0.484429,0.200655 1.334703,0.03189 1.505152,-0.298762 0.543177,-1.053677 0.733785,-1.71459 0.716104,-2.483063 -0.03111,-1.352567 -0.250113,-2.043111 -1.396915,-4.404701 -1.797248,-3.701053 -2.746109,-6.35724 -3.406265,-9.535314 -0.274833,-1.323065 -0.278356,-1.213439 0.039,-1.213439 0.203518,0 0.406148,0.400482 0.8814,1.742037 0.339421,0.958123 0.789743,2.209054 1.000717,2.779852 0.210973,0.570793 0.52083,1.438109 0.688573,1.927359 0.167738,0.489258 0.93282,2.163313 1.700182,3.720126 0.767357,1.556815 1.395195,2.949906 1.395195,3.095765 0,0.221338 0.08764,0.250969 0.529982,0.179187 1.031096,-0.16732 1.355271,-0.406648 1.607129,-1.18648 0.304567,-0.943043 0.306634,-0.911248 -0.194253,-2.991684 -0.235585,-0.978506 -0.605351,-2.537311 -0.821704,-3.464008 -0.493309,-2.112981 -0.890055,-3.301366 -2.159803,-6.469321 -1.338885,-3.340438 -1.498974,-3.836789 -1.592469,-4.937323 -0.138956,-1.635712 0.567215,-2.217755 0.785363,-0.647315 0.117733,0.847549 0.454124,2.121617 0.769906,2.915982 0.210028,0.528341 0.420981,0.698165 1.933716,1.55672 0.933885,0.530021 1.860228,1.113792 2.058535,1.297261 0.198314,0.18347 0.44386,0.333581 0.545663,0.333581 0.101794,0 0.268493,0.08339 0.370422,0.185323 0.116536,0.116541 0.609045,0.18464 1.326914,0.183487 1.356456,-0.0022 2.550049,-0.392425 2.550049,-0.833725 0,-0.152013 -0.07039,-0.276375 -0.156393,-0.276375 -0.289095,0 -1.474451,-0.598928 -1.474451,-0.745 0,-0.07949 -0.102177,-0.144552 -0.227041,-0.144552 -0.124874,0 -0.265443,-0.100078 -0.31238,-0.22239 -0.04693,-0.122314 -0.13634,-0.222386 -0.198674,-0.222386 -0.154599,0 -2.671855,-2.527286 -2.671855,-2.682502 0,-0.06819 -0.133433,-0.195394 -0.296519,-0.282672 -0.163084,-0.08728 -0.296515,-0.25442 -0.296515,-0.371427 0,-0.117002 -0.20015,-0.360707 -0.444776,-0.541572 -0.244628,-0.180857 -0.444776,-0.408442 -0.444776,-0.505746 0,-0.0973 -0.233509,-0.355014 -0.518906,-0.572698 -0.285397,-0.217684 -0.518905,-0.492466 -0.518905,-0.610628 0,-0.118166 -0.08752,-0.214842 -0.194507,-0.214842 -0.106978,0 -0.342484,-0.20015 -0.523343,-0.444777 -0.180856,-0.244625 -0.394984,-0.444768 -0.475832,-0.444768 -0.08086,0 -0.395753,-0.160983 -0.699789,-0.357743 -0.304039,-0.196754 -1.153244,-0.505017 -1.887126,-0.68503 -1.611362,-0.395256 -2.20522,-0.623134 -4.22537,-1.621388 -1.875966,-0.927001 -2.536603,-1.198858 -6.671641,-2.745435 -2.000028,-0.748045 -4.493469,-1.528546 -6.152732,-1.925939 -4.680957,-1.121082 -9.004474,-2.817892 -12.947089,-5.081225 -2.075423,-1.191434 -2.281015,-1.349997 -2.058802,-1.587878 0.123827,-0.132559 0.317753,-0.09208 0.808285,0.168747 1.318293,0.700943 3.504411,1.576336 6.858803,2.746495 2.240549,0.781603 4.328766,1.361136 7.412933,2.057278 2.454408,0.553998 4.692125,1.22289 7.63532,2.282331 1.065862,0.383668 1.896282,0.4095 2.991078,0.09304 0.258874,-0.07483 0.496889,-0.109853 0.528924,-0.07781 0.05917,0.05918 1.715313,-0.24946 2.929249,-0.545901 1.617341,-0.394949 3.388338,-1.103353 5.696789,-2.278732 1.365042,-0.695032 2.650758,-1.263692 2.857145,-1.263692 0.363105,0 0.37196,-0.02281 0.27356,-0.704229 -0.191699,-1.327531 -1.553035,-3.743531 -2.109356,-3.743531 -0.112235,0 -0.242466,-0.100078 -0.289401,-0.222389 -0.04694,-0.122313 -0.180369,-0.222388 -0.296517,-0.222388 -0.116149,0 -0.249581,-0.100077 -0.296517,-0.222388 -0.04694,-0.122313 -0.14271,-0.222388 -0.212826,-0.222388 -0.216137,0 -2.509445,-1.503943 -2.509445,-1.645684 0,-0.07337 -0.102177,-0.133419 -0.227041,-0.133419 -0.124872,0 -0.265442,-0.100077 -0.312378,-0.222388 -0.04693,-0.122313 -0.173145,-0.222389 -0.280461,-0.222389 -0.107316,0 -0.39527,-0.200148 -0.639896,-0.444776 -0.244628,-0.244625 -0.514279,-0.444775 -0.599223,-0.444775 -0.08495,0 -0.22586,-0.133434 -0.313139,-0.296518 -0.08728,-0.163085 -0.248746,-0.296517 -0.358812,-0.296517 -0.110063,0 -0.309407,-0.166791 -0.442976,-0.370647 -0.133572,-0.203843 -0.32885,-0.370634 -0.433946,-0.370634 -0.105096,0 -0.339066,-0.20015 -0.519928,-0.444777 -0.180861,-0.244628 -0.398469,-0.444777 -0.483576,-0.444777 -0.08509,0 -0.490104,-0.36694 -0.89999,-0.815421 -0.409888,-0.448482 -0.792957,-0.815423 -0.851261,-0.815423 -0.134104,0 -4.905031,-4.764205 -4.905031,-4.898118 0,-0.05451 -0.61877,-0.697702 -1.375042,-1.429328 -0.85546,-0.827577 -1.322529,-1.382738 -1.236068,-1.4692 0.08647,-0.08646 0.726957,0.463973 1.695039,1.456699 0.855833,0.87762 1.637423,1.595673 1.736866,1.595673 0.09943,0 0.561534,0.433656 1.026868,0.963682 0.465337,0.530024 0.923821,0.963681 1.018854,0.963686 0.09504,1e-6 0.359099,0.233509 0.586818,0.518903 0.227719,0.285395 0.498715,0.518901 0.602216,0.518901 0.103501,0 0.336165,0.20015 0.517025,0.444776 0.180861,0.244629 0.414369,0.444777 0.518905,0.444777 0.104539,0 0.340525,0.203502 0.524414,0.452226 0.18389,0.248726 0.496661,0.513942 0.695046,0.589366 0.198384,0.07542 0.360698,0.205506 0.360698,0.289066 0,0.08357 0.09773,0.151928 0.217173,0.151928 0.119445,0 0.288584,0.133434 0.375862,0.296518 0.08728,0.163085 0.258513,0.296517 0.380516,0.296517 0.122005,0 0.260227,0.100078 0.307162,0.222388 0.04694,0.122313 0.18037,0.222388 0.296519,0.222388 0.116148,0 0.249582,0.100077 0.296516,0.222388 0.04694,0.122314 0.163392,0.222388 0.25879,0.222388 0.200131,0 1.77179,1.148462 1.845736,1.348737 0.02717,0.07362 0.108518,0.133848 0.180738,0.133848 0.138966,0 2.379576,1.431711 2.510163,1.603951 0.04212,0.05556 0.330586,0.230332 0.64102,0.388378 0.310433,0.158043 0.730848,0.441587 0.934254,0.630097 0.203407,0.188512 0.430763,0.342749 0.505234,0.342749 0.07447,0 0.206816,0.133432 0.294096,0.296516 0.08728,0.163085 0.25807,0.296517 0.379531,0.296517 0.121464,0 0.282714,0.162734 0.358334,0.361633 0.07563,0.198899 0.269224,0.432132 0.430228,0.518298 0.619606,0.331605 1.277037,2.851778 1.416843,5.431288 0.04391,0.809799 0.126708,2.2396 0.184037,3.177336 0.05734,0.937737 0.092,1.753728 0.07704,1.813314 -0.115708,0.46093 0.693698,3.021653 1.163762,3.681797 0.159349,0.223782 0.289724,0.472839 0.289724,0.553457 0,0.0806 0.100078,0.184974 0.222387,0.23191 0.122313,0.04695 0.222388,0.185969 0.222388,0.308959 0,0.122997 0.166793,0.332909 0.370648,0.466485 0.203857,0.133569 0.370647,0.320853 0.370647,0.41619 0,0.207123 1.503753,1.719921 1.709635,1.719926 0.07898,5e-6 0.32991,0.233514 0.557631,0.518909 0.227719,0.285393 0.503588,0.5189 0.613048,0.5189 0.109458,0 0.308297,0.166795 0.441867,0.370648 0.133571,0.203854 0.313168,0.370647 0.399102,0.370647 0.204948,0 1.02299,0.820775 1.02299,1.026405 0,0.08782 0.0678,0.15966 0.150659,0.15966 0.08285,0 0.266327,0.250189 0.407709,0.555972 0.141381,0.305781 0.340451,0.60932 0.442378,0.67453 0.101925,0.0652 0.185322,0.215319 0.185322,0.333581 0,0.350268 0.657636,0.249056 1.042309,-0.160412 0.276739,-0.294574 0.365819,-0.581337 0.413576,-1.331375 0.07051,-1.107454 -0.07696,-1.450733 -1.772033,-4.124797 -0.559999,-0.883426 -1.018177,-1.63055 -1.018177,-1.660271 0,-0.02971 -0.159219,-0.225836 -0.353822,-0.435814 -0.194601,-0.209985 -0.455307,-0.591336 -0.579345,-0.847448 -0.212657,-0.439095 -0.207271,-0.480482 0.09436,-0.725252 0.30558,-0.247976 0.331508,-0.247158 0.579349,0.01815 0.1427,0.152771 0.259453,0.322943 0.259453,0.37816 0,0.327833 0.879331,0.823017 1.964124,1.106088 1.262985,0.329564 3.669708,1.404118 3.669708,1.638451 0,0.07295 0.07952,0.132638 0.176727,0.132638 0.242871,0 2.491927,1.488772 2.491927,1.649541 0,0.07125 0.06541,0.129565 0.145377,0.129565 0.208226,0 1.632533,0.933392 2.123202,1.391404 0.228441,0.213233 0.468888,0.387698 0.534326,0.387698 0.06543,0 0.28822,0.156865 0.495088,0.348583 0.206869,0.191715 0.483475,0.38977 0.614687,0.440118 0.131211,0.05036 0.238563,0.160354 0.238563,0.244457 0,0.08409 0.06893,0.152915 0.153198,0.152915 0.08427,0 0.854305,0.470387 1.711206,1.045305 3.184823,2.136785 5.617301,3.184528 7.514461,3.236725 0.885097,0.02436 0.999234,-0.004 0.999234,-0.248193 0,-0.298163 -0.579255,-0.920405 -0.856822,-0.920405 -0.09383,0 -0.241952,-0.133436 -0.329236,-0.296521 -0.08725,-0.163084 -0.246681,-0.296513 -0.35422,-0.296513 -0.107534,0 -0.375498,-0.166794 -0.595458,-0.370648 -0.21996,-0.203854 -0.430406,-0.370647 -0.467659,-0.370647 -0.163202,0 -3.030425,-1.985229 -3.030425,-2.098233 0,-0.06911 -0.09242,-0.125647 -0.205342,-0.125647 -0.112932,0 -0.314624,-0.166793 -0.448195,-0.370647 -0.133567,-0.203854 -0.306532,-0.370649 -0.384357,-0.370649 -0.07781,0 -0.685928,-0.567089 -1.351341,-1.260198 -0.665413,-0.693106 -1.257958,-1.260195 -1.316761,-1.260195 -0.150274,0 -2.965647,-2.831524 -2.965647,-2.982663 0,-0.06817 -0.166791,-0.233221 -0.370647,-0.366793 -0.203854,-0.133568 -0.370647,-0.332906 -0.370647,-0.442976 0,-0.110063 -0.133436,-0.271534 -0.296519,-0.358812 -0.163085,-0.08728 -0.296513,-0.254069 -0.296513,-0.370648 0,-0.116576 -0.133435,-0.283363 -0.29652,-0.370642 -0.163084,-0.08728 -0.296519,-0.254073 -0.296519,-0.370647 0,-0.116575 -0.13343,-0.283369 -0.296514,-0.370649 -0.163088,-0.08728 -0.296518,-0.250855 -0.296518,-0.36351 0,-0.11265 -0.08341,-0.23865 -0.185325,-0.280015 -0.141315,-0.05734 -0.134725,-0.110434 0.02774,-0.223585 0.155586,-0.108355 0.304919,-0.06138 0.553411,0.174039 0.187177,0.177333 0.341475,0.38942 0.342884,0.471308 0.0033,0.185655 3.779577,3.928228 3.963718,3.928228 0.07388,0 0.282298,0.20015 0.463161,0.444774 0.180864,0.244632 0.400044,0.444776 0.487076,0.444776 0.08703,0 0.458152,0.333587 0.824721,0.741296 0.366568,0.40771 0.735288,0.741296 0.81938,0.741296 0.08408,0 0.417161,0.300222 0.740157,0.667161 0.322989,0.366938 0.679315,0.667166 0.791828,0.667166 0.112516,0 0.275987,0.13343 0.363266,0.296513 0.08728,0.163084 0.253105,0.296519 0.368503,0.296519 0.115391,0 0.263154,0.08406 0.328363,0.186793 0.06521,0.102735 0.376067,0.319565 0.690804,0.481842 0.314738,0.162277 0.605424,0.378444 0.645963,0.480371 0.04049,0.101926 0.168743,0.185324 0.284892,0.185324 0.11615,0 0.249576,0.100065 0.296513,0.222383 0.047,0.122319 0.168536,0.222392 0.270211,0.222392 0.101685,0 0.364844,0.166793 0.584819,0.370647 0.219959,0.203855 0.465302,0.370647 0.545208,0.370647 0.0799,0 0.183677,0.100068 0.230614,0.222386 0.047,0.122312 0.170604,0.222391 0.274812,0.222391 0.10421,0 0.300715,0.16977 0.436667,0.37726 0.135936,0.207497 0.410495,0.439352 0.610086,0.515239 0.19959,0.07588 0.364606,0.223018 0.366704,0.326963 0.0015,0.103948 0.325936,0.504767 0.719646,0.890705 0.632153,0.619684 0.844008,0.728901 1.812355,0.934281 1.300883,0.275903 2.060202,0.190825 2.060202,-0.230836 0,-0.157507 -0.166777,-0.395668 -0.370631,-0.529238 -0.203863,-0.133569 -0.370646,-0.33006 -0.370646,-0.436644 0,-0.106572 -0.266882,-0.42221 -0.593048,-0.701399 -0.326175,-0.279189 -0.593033,-0.57941 -0.593033,-0.667161 0,-0.08774 -0.266859,-0.387979 -0.593032,-0.667166 -0.326174,-0.279188 -0.59304,-0.567039 -0.59304,-0.639664 0,-0.184156 -3.890422,-4.064875 -4.075049,-4.064882 -0.08268,-5e-6 -0.336629,-0.233514 -0.564359,-0.518904 -0.227713,-0.285395 -0.472559,-0.518903 -0.544113,-0.518903 -0.166485,0 -1.932899,-1.761627 -1.932899,-1.927668 0,-0.06867 -0.266859,-0.353272 -0.59303,-0.632458 -0.326167,-0.27919 -0.593034,-0.578707 -0.593034,-0.665588 0,-0.08689 -0.43497,-0.556532 -0.966593,-1.043671 -0.70425,-0.645318 -0.906059,-0.908939 -0.743553,-0.971294 0.132768,-0.05093 0.286069,0.03216 0.378773,0.205406 0.08565,0.160052 0.240914,0.290999 0.345027,0.290999 0.104102,0 0.337261,0.200145 0.518126,0.444777 0.180864,0.244625 0.400044,0.444776 0.487077,0.444776 0.08702,0 0.458151,0.33358 0.824719,0.74129 0.36657,0.407713 0.731934,0.741295 0.811932,0.741295 0.08,0 0.480802,0.366939 0.890685,0.815422 0.409891,0.448481 0.830957,0.815424 0.935709,0.815424 0.104758,0 0.299751,0.166787 0.433313,0.370641 0.133571,0.20386 0.333721,0.370649 0.444772,0.370649 0.111051,0 0.311226,0.166792 0.444788,0.370646 0.133571,0.203856 0.299016,0.370648 0.367661,0.370648 0.157316,0 2.833536,2.667703 2.833536,2.824511 0,0.06367 0.416978,0.492978 0.926608,0.953992 0.509652,0.461019 0.974517,0.966987 1.033036,1.124382 0.07755,0.208624 0.248327,0.28617 0.630102,0.28617 0.457326,0 0.523683,-0.04617 0.523683,-0.364328 0,-0.238668 -0.178969,-0.507126 -0.518906,-0.778361 -0.285383,-0.227714 -0.518898,-0.494579 -0.518898,-0.593033 0,-0.09845 -0.233509,-0.365318 -0.518899,-0.593032 -0.285406,-0.227721 -0.518906,-0.495085 -0.518906,-0.594142 -8e-6,-0.09906 -0.133442,-0.251519 -0.296528,-0.338799 -0.163086,-0.08728 -0.296505,-0.25442 -0.296505,-0.371421 0,-0.117005 -0.200164,-0.36071 -0.444787,-0.541569 -0.244631,-0.180864 -0.444781,-0.41222 -0.444781,-0.514131 0,-0.101902 -0.433612,-0.573055 -0.963609,-1.046993 -0.529975,-0.473937 -0.963626,-0.93476 -0.963672,-1.024047 -9.9e-5,-0.197432 -0.474831,-0.640906 -0.927725,-0.866643 -0.182903,-0.09117 -0.415517,-0.338797 -0.51693,-0.550284 -0.101411,-0.211486 -0.651827,-0.825483 -1.223136,-1.36443 -0.571317,-0.538953 -1.038754,-1.04627 -1.038754,-1.127374 0,-0.08111 -0.166792,-0.256747 -0.370646,-0.390316 -0.203855,-0.133569 -0.370655,-0.332914 -0.370655,-0.442978 0,-0.110063 -0.133425,-0.271533 -0.296512,-0.358812 -0.163087,-0.08728 -0.296518,-0.258509 -0.296518,-0.380515 0,-0.122005 -0.0951,-0.258316 -0.211325,-0.30292 -0.233781,-0.08972 -1.716036,-2.278428 -1.716036,-2.533923 0,-0.08847 -0.100077,-0.199269 -0.222389,-0.246207 -0.12232,-0.04694 -0.222729,-0.170834 -0.223132,-0.275323 -4.38e-4,-0.104484 -0.450732,-0.409446 -1.000742,-0.677677 C 75.418552,44.4713 74.589163,44.052306 74.125476,43.808436 73.286502,43.367193 71.732422,42.746891 70.743177,42.458414 69.817551,42.18849 68.174557,41.243363 67.636129,40.671097 67.347218,40.364029 67.039924,40.112681 66.953256,40.112546 66.747815,40.112229 65.9989,39.32942 65.9989,39.114999 c 0,-0.09111 -0.266865,-0.394086 -0.593032,-0.673274 -0.326174,-0.279189 -0.59304,-0.579413 -0.59304,-0.667163 0,-0.08774 -0.266865,-0.387976 -0.593034,-0.667163 -0.326166,-0.27919 -0.593031,-0.578432 -0.593031,-0.66498 0,-0.08653 -0.333586,-0.457281 -0.741294,-0.82385 -0.40771,-0.366567 -0.741295,-0.73449 -0.741295,-0.817607 0,-0.08311 -0.266867,-0.37955 -0.593033,-0.658737 -0.326169,-0.279189 -0.593033,-0.57843 -0.593033,-0.66498 0,-0.08654 -0.333582,-0.457278 -0.74129,-0.823846 -0.407715,-0.366569 -0.741296,-0.736846 -0.741296,-0.822842 0,-0.086 -0.233508,-0.34267 -0.518898,-0.570386 -0.285393,-0.227721 -0.518901,-0.491762 -0.518905,-0.586759 -2e-6,-0.095 -0.300227,-0.436991 -0.667167,-0.759982 -0.366941,-0.322999 -0.667164,-0.660251 -0.667164,-0.749456 0,-0.08921 -0.20015,-0.31017 -0.444776,-0.491031 -0.244623,-0.180863 -0.444773,-0.411169 -0.444773,-0.511793 0,-0.100624 -0.266867,-0.411382 -0.593035,-0.690569 -0.326172,-0.279182 -0.593038,-0.582258 -0.593038,-0.673493 0,-0.09124 -0.133433,-0.237297 -0.296518,-0.324576 -0.163083,-0.08728 -0.296517,-0.25442 -0.296517,-0.371427 0,-0.117002 -0.200149,-0.360708 -0.444776,-0.541568 -0.244626,-0.180861 -0.444776,-0.414829 -0.444776,-0.519927 0,-0.105096 -0.166792,-0.300375 -0.370646,-0.433947 -0.203857,-0.13357 -0.370646,-0.333719 -0.370646,-0.444774 0,-0.111055 -0.166792,-0.311205 -0.370647,-0.444777 -0.203856,-0.13357 -0.370646,-0.329699 -0.370646,-0.435838 0,-0.106147 -0.06457,-0.215221 -0.143509,-0.242401 -0.08564,-0.02948 -0.09095,-0.134042 -0.01318,-0.259224 0.10432,-0.16794 0.236496,-0.109659 0.662413,0.292075 0.292648,0.276035 0.53209,0.579822 0.53209,0.675084 0,0.09527 0.600447,0.740778 1.334327,1.43448 0.733881,0.693702 1.334331,1.327852 1.334331,1.409223 0,0.08138 1.06746,1.171205 2.372136,2.421853 1.304674,1.250649 2.372137,2.349065 2.372137,2.440926 0,0.09187 0.600446,0.745856 1.334322,1.453317 0.73388,0.707461 1.334329,1.343128 1.334329,1.412594 0,0.06947 0.433657,0.531964 0.963685,1.027776 0.530022,0.495813 0.963682,0.964808 0.963682,1.042209 0,0.07741 0.300222,0.405001 0.66716,0.727993 0.366942,0.322995 0.667164,0.647846 0.667164,0.721894 0,0.2156 1.523134,1.659436 2.083073,1.974631 1.296969,0.730063 4.077565,1.930469 4.471703,1.930469 0.29157,0 3.562291,1.699051 3.634886,1.888227 0.03956,0.103073 0.150022,0.187393 0.245488,0.187393 0.217986,0 0.665642,0.494398 1.067255,1.178691 0.169881,0.289458 0.451449,0.598167 0.6257,0.686021 0.174252,0.08785 0.457081,0.338042 0.628503,0.55597 0.171421,0.217929 0.397163,0.396234 0.501647,0.396234 0.104484,0 0.36995,0.166791 0.589917,0.370647 0.219969,0.203853 0.460863,0.370647 0.535334,0.370647 0.07448,0 0.206817,0.133429 0.2941,0.296518 0.08727,0.163085 0.248741,0.296514 0.358805,0.296514 0.110065,0 0.30941,0.166793 0.442974,0.370647 0.133579,0.203856 0.314531,0.370647 0.402121,0.370647 0.0876,0 0.459171,0.333581 0.825753,0.741296 0.366566,0.407708 0.752223,0.74129 0.85702,0.74129 0.1048,0 0.571279,0.433659 1.036603,0.963679 0.46534,0.530028 0.914421,0.963686 0.997963,0.963686 0.215306,0 0.855215,0.631693 0.858284,0.847268 8.02e-4,0.09906 0.135998,0.25152 0.299085,0.338799 0.163078,0.08728 0.296505,0.256421 0.296505,0.375864 0,0.119444 0.07018,0.217174 0.15583,0.217174 0.170135,0 0.585462,0.89061 0.585462,1.255436 0,0.12493 -0.133426,0.360578 -0.29649,0.523667 -0.163102,0.163082 -0.296536,0.364136 -0.296536,0.446787 0,0.221349 0.342424,0.795352 0.555969,0.931971 0.101882,0.0652 0.185316,0.208179 0.185316,0.317716 0,0.109537 0.100044,0.237565 0.222394,0.284499 0.122312,0.04696 0.222387,0.185162 0.222387,0.307161 0,0.122005 0.133441,0.293242 0.29652,0.380521 0.163086,0.08728 0.29652,0.254421 0.29652,0.371421 0,0.117006 0.200156,0.360713 0.444772,0.541572 0.244623,0.180862 0.444765,0.416364 0.444765,0.523346 0,0.106978 0.06499,0.194503 0.144471,0.194503 0.07949,0 0.247952,0.20015 0.374443,0.444775 0.207834,0.401904 0.207834,0.487655 0,0.889554 -0.126491,0.24463 -0.294997,0.444775 -0.374443,0.444775 -0.07949,0 -0.144471,0.189206 -0.144471,0.420456 0,0.293263 0.1682,0.579988 0.555976,0.947829 0.932149,0.884207 0.932611,0.885579 0.499779,1.519311 -0.699461,1.024101 -1.656802,1.154882 -3.654205,0.499184 l -0.958956,-0.314802 -0.829005,0.317245 C 84.420756,65.72366 82.873919,65.449786 79.92422,64.084469 79.225717,63.761161 76.053694,61.836712 75.7231,61.535683 75.544002,61.3726 75.211835,61.141429 74.984948,61.021967 74.758065,60.902512 74.418651,60.662258 74.2307,60.488069 c -0.187953,-0.174189 -0.449087,-0.3579 -0.580296,-0.408252 -0.131212,-0.05033 -0.238563,-0.160354 -0.238563,-0.244457 0,-0.08411 -0.102177,-0.152909 -0.227042,-0.152909 -0.124874,0 -0.265443,-0.100078 -0.312383,-0.222389 -0.04696,-0.122314 -0.18037,-0.222387 -0.296514,-0.222387 -0.116149,0 -0.249585,-0.100077 -0.296519,-0.222391 -0.04696,-0.122312 -0.18037,-0.222384 -0.296519,-0.222384 -0.116149,0 -0.249578,-0.100078 -0.296514,-0.222392 -0.04696,-0.122313 -0.180372,-0.222385 -0.296518,-0.222385 -0.11615,0 -0.249579,-0.100077 -0.296519,-0.222391 -0.04696,-0.122312 -0.16853,-0.222384 -0.270218,-0.222384 -0.101674,0 -0.354128,-0.156864 -0.560998,-0.348581 -0.206863,-0.191718 -0.483472,-0.389773 -0.614683,-0.44012 -0.131206,-0.05036 -0.238557,-0.160356 -0.238557,-0.244457 0,-0.08409 -0.09034,-0.152914 -0.20074,-0.152914 -0.110411,0 -0.38071,-0.166792 -0.600675,-0.370647 -0.219964,-0.203855 -0.42856,-0.370647 -0.463549,-0.370647 -0.03496,0 -0.415166,-0.221199 -0.844846,-0.491549 -0.42968,-0.270357 -1.048102,-0.60825 -1.374269,-0.75089 -0.326173,-0.142628 -0.83563,-0.388447 -1.132127,-0.546252 -0.296503,-0.157811 -0.580045,-0.286926 -0.6301,-0.286926 -0.153194,0 -0.0999,0.350921 0.112545,0.74129 1.737758,3.192864 1.93269,3.638419 1.923136,4.395774 -0.0069,0.551528 -0.106617,0.901325 -0.359048,1.2602 -0.458555,0.651909 -0.674076,0.867407 -0.867496,0.867407 -0.08738,0 -0.158853,0.06017 -0.158853,0.133722 0,0.07355 -0.247343,0.262085 -0.549652,0.418971 l -0.549659,0.285246 -0.47329,-0.473298 C 62.979921,61.269368 62.523726,60.59714 62.226461,60.035834 61.721258,59.081888 60.47059,57.606828 60.16696,57.606828 c -0.07432,0 -0.399412,-0.300223 -0.722407,-0.667166 -0.322988,-0.366938 -0.643951,-0.667161 -0.713248,-0.667161 -0.16541,0 -1.776173,-1.6124 -1.776173,-1.777979 0,-0.07029 -0.221398,-0.316124 -0.492,-0.546303 -0.913673,-0.777182 -1.715019,-2.172827 -2.155655,-3.754324 -0.24967,-0.896096 -0.313032,-1.568632 -0.32642,-3.464649 l -0.0166,-2.352712 -0.69147,0.07298 c -0.473713,0.05001 -1.135031,0.326612 -2.099931,0.878342 -1.630272,0.932195 -4.175497,1.922312 -5.800175,2.256326 -0.621518,0.127775 -1.246235,0.276912 -1.388265,0.331411 -0.142028,0.05451 -0.434111,0.111957 -0.649073,0.12768 -0.829148,0.06063 -0.909748,0.07893 -0.909748,0.206365 0,0.07225 0.250187,0.248118 0.55597,0.39081 0.305784,0.142693 1.223132,0.572915 2.038557,0.956061 0.815423,0.383142 1.98296,0.845097 2.594526,1.026571 1.319262,0.391471 2.668656,1.003253 2.668656,1.209898 0,0.08105 0.16679,0.210774 0.370647,0.288282 0.203854,0.07749 0.370645,0.209285 0.370645,0.292844 0,0.08357 0.05815,0.151932 0.129199,0.151932 0.165893,0 2.687716,2.517658 2.687716,2.683274 0,0.06862 0.20015,0.272738 0.444777,0.453595 0.244626,0.180865 0.444777,0.414371 0.444777,0.518907 0,0.104539 0.200147,0.338045 0.444775,0.518908 0.244626,0.180858 0.444775,0.414014 0.444775,0.518126 0,0.104101 0.133432,0.260702 0.296517,0.347982 0.163086,0.08728 0.296517,0.253574 0.296517,0.369544 0,0.115964 0.233506,0.397163 0.518902,0.624882 0.285395,0.227714 0.518901,0.4858 0.518906,0.573511 7e-6,0.263167 0.629361,0.755404 1.24181,0.971256 0.316058,0.111386 0.606737,0.286169 0.645961,0.388387 0.03923,0.10222 0.156584,0.185851 0.26079,0.185851 0.104211,0 0.30334,0.173777 0.44251,0.38617 0.648863,0.990297 -0.402465,2.218853 -2.281032,2.665546 -1.092699,0.259826 -2.499359,0.04276 -3.054023,-0.471287 -0.211596,-0.196104 -0.442394,-0.356547 -0.512883,-0.356547 -0.07049,0 -0.339523,-0.266867 -0.597853,-0.593034 -0.258332,-0.326175 -0.548674,-0.59304 -0.645206,-0.59304 -0.09653,0 -0.42097,-0.166788 -0.720972,-0.370646 -1.041875,-0.707971 -1.097095,-0.457367 -0.283916,1.288497 0.315583,0.677551 0.743778,1.66556 0.951543,2.195581 0.479039,1.222062 2.213579,8.033986 2.224875,8.737576 0.0048,0.290724 -0.118715,0.795155 -0.274175,1.120953 -0.399688,0.837608 -1.766087,2.117699 -2.459904,2.304523 -0.452086,0.121738 -0.562994,0.219365 -0.546568,0.481156 0.07272,1.158803 -0.900367,2.760082 -2.248662,3.700333 -0.395396,0.275737 -0.55986,0.291755 -1.260199,0.122744 z M 87.199908,55.072263 c 0,-0.235868 -0.487316,-1.077543 -0.704245,-1.216313 -0.101881,-0.0652 -0.185299,-0.196347 -0.185299,-0.291425 0,-0.200049 -1.334035,-1.591506 -1.525826,-1.591506 -0.07065,0 -0.764784,-0.667161 -1.542451,-1.482584 -0.777658,-0.815423 -1.503918,-1.482586 -1.61389,-1.482586 -0.109964,0 -0.268641,-0.128363 -0.352612,-0.285255 -0.141807,-0.264954 -0.92895,-0.75256 -1.214869,-0.75256 -0.286125,0 -0.0946,0.458746 0.319285,0.764741 0.244631,0.180858 0.44478,0.406073 0.44478,0.500481 0,0.0944 1.267608,1.419504 2.816925,2.944667 1.549294,1.525165 2.816909,2.836422 2.816909,2.913907 0,0.07748 0.166793,0.140884 0.370646,0.140884 0.203856,0 0.370647,-0.07309 0.370647,-0.162451 z m 26.337552,24.977324 c -1.31036,-0.361827 -3.04368,-1.172494 -3.16105,-1.478418 -0.0438,-0.114461 -0.1377,-0.208106 -0.20838,-0.208106 -0.1768,0 -1.47061,-1.307791 -1.47061,-1.48649 0,-0.07939 -0.0603,-0.144357 -0.134,-0.144357 -0.22689,0 -1.60565,-2.271006 -2.86263,-4.715147 -0.65825,-1.279929 -1.55425,-2.920935 -1.99113,-3.646683 -0.43689,-0.725742 -0.79435,-1.36909 -0.79435,-1.429659 0,-0.06055 -0.10005,-0.148518 -0.22238,-0.195453 -0.12233,-0.04696 -0.22239,-0.180372 -0.22239,-0.296519 0,-0.11615 -0.10004,-0.24958 -0.22239,-0.29652 -0.12231,-0.04696 -0.22238,-0.187504 -0.22238,-0.312378 0,-0.124872 -0.0684,-0.227041 -0.15193,-0.227041 -0.0836,0 -0.21401,-0.163301 -0.2899,-0.362892 -0.0758,-0.19959 -0.30774,-0.474133 -0.51524,-0.610083 -0.2075,-0.135957 -0.37725,-0.334399 -0.37725,-0.440982 0,-0.106584 -0.26688,-0.422213 -0.59305,-0.701402 -0.326167,-0.279185 -0.593044,-0.577419 -0.593044,-0.662744 0,-0.08533 -0.400275,-0.525733 -0.889533,-0.978698 -0.489258,-0.452961 -0.88956,-0.887624 -0.88956,-0.965915 0,-0.07828 -0.333576,-0.44226 -0.741276,-0.808828 -0.407716,-0.366568 -0.741306,-0.734017 -0.741306,-0.816561 0,-0.08254 -0.300219,-0.414345 -0.667173,-0.737335 -0.366938,-0.322994 -0.667148,-0.66071 -0.667148,-0.750478 0,-0.08977 -0.166812,-0.272497 -0.370664,-0.406073 -0.203853,-0.13357 -0.370648,-0.333261 -0.370648,-0.44375 0,-0.11049 -0.200143,-0.348879 -0.444763,-0.529737 -0.244619,-0.180863 -0.444778,-0.414019 -0.444778,-0.518131 0,-0.104101 -0.133432,-0.260702 -0.296517,-0.34798 -0.163077,-0.08728 -0.296517,-0.249283 -0.296517,-0.360002 0,-0.110714 -0.100051,-0.239711 -0.222385,-0.286646 -0.122318,-0.04695 -0.222394,-0.187509 -0.222394,-0.312382 0,-0.124869 -0.05702,-0.227037 -0.126506,-0.227037 -0.128474,0 -1.216972,-1.575187 -1.96406,-2.84225 -0.354251,-0.600822 -0.380643,-0.720467 -0.193291,-0.875963 0.177354,-0.147193 0.292563,-0.09547 0.630532,0.283081 0.227438,0.254747 0.508909,0.64817 0.625476,0.874277 0.116567,0.226106 0.295455,0.464455 0.397515,0.529664 0.102093,0.06521 0.185571,0.208182 0.185571,0.317722 0,0.109537 0.100043,0.23756 0.222378,0.284494 0.122318,0.04695 0.222385,0.185969 0.222385,0.308965 0,0.122989 0.166803,0.332909 0.370656,0.466478 0.203853,0.13357 0.37064,0.329653 0.37064,0.435737 0,0.106081 0.266871,0.404239 0.593041,0.662572 0.326162,0.258326 0.593017,0.548372 0.593017,0.64454 0,0.181345 4.003454,4.247994 4.181969,4.247994 0.151506,0 3.082713,2.956855 3.082713,3.109696 0,0.07268 0.30025,0.378156 0.66716,0.678833 0.36695,0.300681 0.66718,0.636382 0.66718,0.746003 0,0.109614 0.13341,0.270724 0.29651,0.358004 0.16308,0.08728 0.29651,0.21894 0.29651,0.292579 0,0.07365 0.20105,0.354001 0.44674,0.623018 0.4824,0.528145 2.03886,3.089095 3.183,5.237133 1.53069,2.873811 1.9164,3.578454 2.25042,4.111238 0.19069,0.304162 0.34672,0.613922 0.34672,0.688364 0,0.07445 0.10005,0.17374 0.22236,0.220682 0.12234,0.04696 0.2224,0.174419 0.2224,0.283294 0,0.699062 2.38368,1.964137 4.8184,2.557259 2.23599,0.544692 2.78472,0.933876 2.21086,1.567988 -0.23296,0.257424 -0.42085,0.293371 -1.32715,0.253933 -0.58064,-0.02526 -1.56903,-0.187678 -2.19638,-0.360908 z m -0.98533,-14.462199 c -1.66518,-0.882359 -4.59602,-2.767281 -4.59602,-2.955845 0,-0.07269 -0.0977,-0.132158 -0.21716,-0.132158 -0.11945,0 -0.28858,-0.133435 -0.37586,-0.29652 -0.0874,-0.163085 -0.25852,-0.296512 -0.38052,-0.296512 -0.12201,0 -0.26023,-0.100077 -0.30717,-0.222392 -0.047,-0.122312 -0.17487,-0.222386 -0.28431,-0.222386 -0.10952,0 -0.3771,-0.233507 -0.59477,-0.518908 -0.21769,-0.285397 -0.44601,-0.518907 -0.50738,-0.518907 -0.1495,0 -2.67014,-2.526337 -2.67014,-2.676164 0,-0.06469 -0.26687,-0.346069 -0.59303,-0.625257 -0.32617,-0.279188 -0.59304,-0.581764 -0.59304,-0.672394 0,-0.09064 -0.23349,-0.351097 -0.51889,-0.578819 -0.28541,-0.227713 -0.51891,-0.495885 -0.51891,-0.595934 0,-0.100056 -0.1668,-0.29119 -0.37066,-0.424761 -0.20386,-0.133569 -0.370639,-0.332913 -0.370639,-0.442977 0,-0.110074 -0.133452,-0.271531 -0.296514,-0.358813 -0.163089,-0.08728 -0.296532,-0.249281 -0.296532,-0.36 0,-0.110724 -0.100044,-0.239712 -0.222381,-0.286652 -0.12231,-0.04696 -0.222381,-0.185967 -0.222381,-0.308958 0,-0.122991 -0.166788,-0.332908 -0.370665,-0.46648 -0.20385,-0.133568 -0.37062,-0.328122 -0.37062,-0.432328 0,-0.10421 -0.100053,-0.227878 -0.222408,-0.274819 -0.12231,-0.04695 -0.22239,-0.185966 -0.22239,-0.308958 0,-0.12299 -0.166788,-0.332908 -0.370638,-0.466483 -0.203859,-0.133571 -0.370638,-0.328118 -0.370638,-0.432332 0,-0.104199 -0.100063,-0.227876 -0.222406,-0.27481 -0.122302,-0.04695 -0.222377,-0.172146 -0.222377,-0.278247 0,-0.241671 -2.684339,-2.929827 -2.925679,-2.929827 -0.0975,0 -0.248718,-0.133437 -0.336012,-0.296522 -0.08734,-0.163084 -0.227707,-0.296515 -0.312077,-0.296515 -0.08437,0 -0.432281,-0.191281 -0.773161,-0.425066 -2.139996,-1.467758 -6.039023,-2.687427 -11.060681,-3.459924 -0.686899,-0.105665 -1.272398,-0.264025 -1.301103,-0.351901 -0.116314,-0.356066 0.723494,-0.487331 3.066644,-0.479332 2.561165,0.0088 4.009657,0.230038 6.229133,0.951669 1.813198,0.589534 4.463346,2.018886 4.651298,2.508673 0.04601,0.119937 0.183489,0.218068 0.305507,0.218068 0.121986,0 0.293228,0.133433 0.380498,0.296518 0.08735,0.163084 0.214504,0.296517 0.282682,0.296517 0.161165,0 2.682514,2.520297 2.682514,2.681398 0,0.06758 0.233505,0.309189 0.518877,0.536909 0.285408,0.227719 0.518913,0.495078 0.518913,0.594143 9e-6,0.09906 0.133452,0.251515 0.296523,0.338796 0.163089,0.08728 0.296532,0.249275 0.296532,0.359995 0,0.110725 0.100044,0.239717 0.222381,0.286652 0.122292,0.04695 0.22239,0.185161 0.22239,0.30716 0,0.122004 0.133416,0.29324 0.296496,0.380521 0.163098,0.08728 0.296532,0.249277 0.296532,0.359995 0,0.110725 0.100044,0.239716 0.222382,0.28665 0.12233,0.04696 0.22239,0.185969 0.22239,0.308961 0,0.122995 0.1668,0.332906 0.37065,0.466483 0.20386,0.13357 0.37064,0.33291 0.37064,0.442976 0,0.110065 0.13344,0.271535 0.29652,0.358813 0.16308,0.08728 0.29653,0.25407 0.29653,0.370644 0,0.11658 0.13342,0.283367 0.2965,0.370646 0.16309,0.08728 0.29653,0.25442 0.29653,0.371426 0,0.117 0.20015,0.360706 0.44477,0.541572 0.24462,0.180857 0.44478,0.411165 0.44478,0.511793 0,0.100613 0.28354,0.422508 0.6301,0.715295 0.34657,0.292792 0.73531,0.714964 0.86388,0.938167 0.12857,0.223209 0.39263,0.485607 0.58679,0.583126 0.19415,0.09751 0.40371,0.314338 0.46568,0.481838 0.062,0.167498 0.20927,0.304544 0.32735,0.304544 0.11809,0 0.42607,0.266864 0.68439,0.593036 0.25835,0.326168 0.55652,0.593032 0.66258,0.593032 0.10618,0 0.30218,0.166794 0.43574,0.370649 0.13357,0.203854 0.33906,0.370648 0.45662,0.370648 0.11755,0 0.28517,0.133429 0.37243,0.296514 0.0874,0.163084 0.25854,0.296519 0.38051,0.296519 0.12202,0 0.26024,0.100066 0.30717,0.222385 0.047,0.122318 0.18038,0.22239 0.29652,0.22239 0.11617,0 0.24959,0.100066 0.29653,0.222386 0.047,0.122318 0.17497,0.222391 0.28451,0.222391 0.10948,0 0.25248,0.08351 0.3177,0.185566 0.0652,0.102055 0.30776,0.283194 0.53901,0.402518 0.23126,0.119321 0.58495,0.369397 0.78601,0.555723 0.20103,0.186329 0.41214,0.341489 0.46908,0.344802 0.19347,0.01127 2.30673,1.549763 2.36092,1.71881 0.055,0.171835 -0.34417,0.655528 -0.52592,0.637108 -0.0553,-0.0057 -0.73441,-0.346041 -1.50905,-0.756524 z"
       id="path200" /><text
        xml:space="preserve"
        transform="matrix(0.26458333,0,0,0.26458333,0,-7.4083335)"
        id="text4460"
        style="font-style:normal;font-variant:normal;font-weight:normal;font-stretch:normal;font-size:32px;font-family:sans-serif;-inkscape-font-specification:'sans-serif, Normal';font-variant-ligatures:normal;font-variant-caps:normal;font-variant-numeric:normal;font-variant-east-asian:normal;white-space:pre;shape-inside:url(#rect4462);display:inline;fill:#00ffff" /><path
        style="fill:#877ba3;fill-opacity:1;stroke-width:0.0750094"
        d="m 111.57878,109.88075 c -0.42451,-0.27189 -0.57461,-0.61237 -0.60742,-1.37788 -0.0363,-0.84608 0.0941,-1.38646 0.57968,-2.40309 0.41478,-0.86835 0.99971,-1.68168 1.8699,-2.6 l 0.6157,-0.64975 0.11521,-1.21038 c 0.0634,-0.66571 0.10468,-1.2949 0.0918,-1.3982 -0.0212,-0.16998 -0.055,-0.14421 -0.35676,0.27144 -1.11264,1.53274 -2.44352,1.47876 -2.60706,-0.10574 l -0.0407,-0.39423 -0.64895,0.65702 c -0.47945,0.48544 -0.77581,0.71705 -1.13475,0.88685 -1.05445,0.49883 -1.75326,0.19935 -1.9842,-0.85034 l -0.0479,-0.21768 -0.3145,0.30687 c -0.50869,0.49634 -1.1454,0.84108 -1.55342,0.84108 -0.36596,0 -0.54207,-0.12269 -0.75368,-0.52506 -0.11835,-0.22504 -0.12233,-1.04697 -0.007,-1.458469 0.0456,-0.1627 0.0687,-0.30996 0.0514,-0.32724 -0.0173,-0.0173 -0.20575,0.0104 -0.4188,0.0615 -0.21306,0.0511 -0.54977,0.0737 -0.74824,0.0502 l -0.36087,-0.0427 -0.42817,0.56887 c -0.6079,0.807669 -0.92308,1.142349 -1.30478,1.385499 -0.37526,0.23905 -0.78587,0.27747 -1.11982,0.10478 -0.25013,-0.12935 -0.705497,-0.62049 -0.869683,-0.938 -0.06527,-0.12623 -0.138175,-0.22951 -0.161998,-0.22951 -0.02381,0 -0.21704,0.15687 -0.429376,0.3486 -0.985728,0.89004 -2.202478,1.04396 -2.745786,0.34734 -0.09672,-0.12401 -0.177375,-0.17327 -0.19921,-0.12167 -0.02018,0.0477 -0.229026,0.40164 -0.464098,0.78655 -0.551289,0.90271 -1.787353,2.17462 -2.490499,2.56272 -1.439489,0.79454 -2.757854,0.62078 -3.982705,-0.52492 -0.965607,-0.90322 -1.717784,-2.71032 -1.946975,-4.677599 -0.121477,-1.04272 -0.04819,-2.94579 0.151503,-3.93417 0.335278,-1.65944 0.977415,-3.12952 1.847776,-4.23021 0.559008,-0.70694 1.084996,-1.14453 1.7548,-1.45987 0.650008,-0.30601 1.424968,-0.32841 1.976024,-0.0571 0.654584,0.32227 1.101453,1.18198 1.098917,2.11417 -0.0031,1.13189 -0.673389,2.59937 -1.155669,2.53007 -0.26281,-0.0378 -0.212457,-0.23115 0.181493,-0.69707 0.454234,-0.53722 0.552189,-0.85473 0.509148,-1.6504 -0.0484,-0.89476 -0.40565,-1.58498 -0.974064,-1.88193 -0.289694,-0.15134 -0.962753,-0.13091 -1.426093,0.0433 -1.836507,0.69048 -3.363757,3.84326 -3.553223,7.33511 -0.135617,2.49941 0.683507,5.150709 1.943109,6.289359 1.896635,1.71451 4.405826,0.48444 6.216019,-3.04725 0.179738,-0.35067 0.386456,-0.778699 0.45938,-0.951189 0.170557,-0.40342 0.749614,-1.01227 1.15744,-1.217 0.617695,-0.31007 1.283545,-0.27841 1.819742,0.0865 0.47604,0.32399 0.768961,0.97124 0.488281,1.07895 -0.09451,0.0363 -0.212411,-0.0472 -0.435864,-0.30863 -0.492384,-0.57604 -0.994909,-0.70225 -1.610196,-0.40439 -0.97438,0.47169 -1.414009,1.990489 -0.649229,2.242889 0.559428,0.18462 1.183183,-0.0871 1.92135,-0.83711 0.278863,-0.283329 0.539078,-0.515139 0.578248,-0.515139 0.125625,0 0.307861,0.23108 0.531298,0.673709 0.29894,0.5922 0.61937,0.8538 0.98562,0.80467 0.39062,-0.0524 0.75458,-0.3558 1.34823,-1.123939 l 0.51094,-0.6611 -0.0437,-0.46747 c -0.0404,-0.43253 -0.0282,-0.48583 0.16313,-0.71321 0.17411,-0.20692 0.24964,-0.24216 0.47809,-0.22306 0.2374,0.0199 0.27441,0.0499 0.29617,0.24068 0.0137,0.11989 -0.0348,0.35029 -0.10772,0.51201 -0.11393,0.25265 -0.11743,0.30423 -0.0249,0.36656 0.18744,0.12622 0.7421,0.002 1.26449,-0.28406 0.79849,-0.43668 0.88136,-0.31583 0.4714,0.68745 -0.1012,0.24766 -0.20143,0.662499 -0.22274,0.921849 -0.0344,0.41916 -0.0194,0.4921 0.13485,0.65633 0.21984,0.23403 0.39714,0.23255 0.87844,-0.007 0.4772,-0.23779 1.15289,-0.948749 1.57157,-1.653599 0.37865,-0.63747 0.81659,-1.05297 1.18213,-1.12154 0.80037,-0.15016 1.1381,0.69122 0.54748,1.36391 -0.29286,0.33355 -0.59286,0.48674 -1.06642,0.544539 l -0.37795,0.0461 -0.0227,0.39559 c -0.0205,0.35697 -6e-5,0.41826 0.20957,0.62789 0.21003,0.21002 0.26255,0.22746 0.5478,0.18186 0.44502,-0.0712 0.90254,-0.36162 1.47327,-0.93536 0.49435,-0.496939 1.29426,-1.601199 1.54037,-2.126459 0.30237,-0.64531 0.46531,-0.0349 0.22527,0.84385 -0.062,0.22691 -0.13144,0.66571 -0.15435,0.975129 -0.0814,1.09901 0.40846,1.44981 1.13445,0.81238 0.35721,-0.31364 0.66162,-0.76332 1.15925,-1.712499 0.31347,-0.59791 0.45293,-0.79328 0.57904,-0.81122 0.26205,-0.0373 0.27444,0.20715 0.097,1.913509 -0.0895,0.8604 -0.15151,1.68164 -0.13789,1.82499 l 0.0248,0.26062 1.07654,-1.05013 c 0.5921,-0.57757 1.34799,-1.362359 1.67977,-1.743969 0.59377,-0.68296 0.76954,-0.80277 0.85416,-0.58225 0.11123,0.28985 -0.97576,1.562369 -2.73183,3.198129 -0.54813,0.51057 -1.0113,0.99582 -1.02929,1.07833 -0.018,0.0825 -0.10277,0.66895 -0.18841,1.30319 -0.37554,2.78113 -0.90442,4.51587 -1.58397,5.19541 -0.24617,0.24618 -0.33769,0.28956 -0.60854,0.28849 -0.19193,-7.6e-4 -0.41477,-0.0627 -0.55999,-0.15576 z m 0.76777,-0.45764 c 0.55985,-0.44037 1.41947,-3.25844 1.50569,-4.93603 l 0.0405,-0.7876 -0.41956,0.45006 c -1.39451,1.49589 -2.24445,3.65884 -1.91042,4.86172 0.0853,0.30715 0.30587,0.57646 0.47215,0.57646 0.0563,0 0.19657,-0.0741 0.31166,-0.16461 z m -3.50436,-9.975989 c 0.33259,-0.20505 0.49321,-0.46308 0.43432,-0.69771 -0.0618,-0.2463 -0.26751,-0.24308 -0.56695,0.009 -0.22583,0.19002 -0.52753,0.6809 -0.52753,0.85831 0,0.11518 0.34001,0.0279 0.66016,-0.16949 z m -42.759177,9.232509 c -0.120995,-0.0687 -0.13129,-0.27522 -0.131572,-2.63983 -3.75e-4,-3.29931 -0.143342,-5.23831 -0.467841,-6.345889 l -0.09672,-0.33011 -0.439877,0.58443 c -0.61976,0.823429 -0.932938,1.156729 -1.316485,1.401049 -0.375258,0.23905 -0.785867,0.27747 -1.119817,0.10478 -0.250118,-0.12935 -0.70549,-0.62049 -0.869681,-0.938 -0.06528,-0.12623 -0.138174,-0.22951 -0.161994,-0.22951 -0.02382,0 -0.21704,0.15687 -0.429377,0.3486 -1.064221,0.96091 -2.413301,1.05509 -2.803865,0.19573 -0.07044,-0.15498 -0.138221,-0.29657 -0.150623,-0.31462 -0.0124,-0.0181 -0.165297,0.10646 -0.339767,0.27671 -0.174468,0.17024 -0.517756,0.42973 -0.76286,0.57664 -0.874288,0.52403 -1.479235,0.29114 -1.644245,-0.633 -0.04378,-0.2452 0.03482,-0.944899 0.145229,-1.292759 0.04322,-0.13616 0.02485,-0.14776 -0.16602,-0.1049 -0.48865,0.10975 -1.001847,0.1373 -1.209469,0.0649 -0.121676,-0.0424 -0.252548,-0.0552 -0.290826,-0.0285 -0.03828,0.0267 -0.225601,0.2696 -0.416275,0.53971 -1.053984,1.493089 -2.576381,2.269899 -3.283104,1.675229 -0.371243,-0.31238 -0.482892,-0.59551 -0.485939,-1.2323 -0.0023,-0.489819 0.03003,-0.632659 0.24008,-1.059329 0.290547,-0.59018 0.791164,-1.08179 1.174932,-1.15379 0.802595,-0.15057 1.141363,0.68967 0.549736,1.36349 -0.292859,0.33355 -0.592857,0.48674 -1.066418,0.544539 l -0.377947,0.0461 -0.02273,0.39559 c -0.02051,0.35697 -5.7e-5,0.41826 0.209567,0.62789 0.207762,0.20776 0.264479,0.22715 0.536921,0.18359 0.167542,-0.0268 0.400464,-0.0983 0.517603,-0.15885 0.42288,-0.21868 1.111705,-0.86262 1.562024,-1.460239 0.429735,-0.5703 0.459528,-0.63591 0.459528,-1.01202 0,-0.32497 0.03791,-0.44724 0.197501,-0.63689 0.164682,-0.19572 0.242583,-0.23095 0.468809,-0.21204 0.237404,0.0198 0.274414,0.0499 0.296171,0.24068 0.01368,0.11989 -0.0348,0.35029 -0.107722,0.51201 -0.113931,0.25265 -0.11743,0.30423 -0.02486,0.36656 0.18744,0.12622 0.742099,0.002 1.264491,-0.28406 0.79849,-0.43668 0.881365,-0.31583 0.471404,0.68745 -0.101199,0.24766 -0.201432,0.662499 -0.22274,0.921849 -0.03443,0.41916 -0.01945,0.4921 0.134844,0.65633 0.09547,0.10163 0.245459,0.18478 0.333305,0.18478 0.522626,0 1.56376,-0.88717 2.047936,-1.745079 0.130265,-0.23082 0.336832,-0.53355 0.459038,-0.67273 0.285239,-0.32487 0.875992,-0.64583 1.294208,-0.70315 0.783344,-0.10737 1.628993,0.40969 1.759443,1.0758 0.08295,0.42355 -0.138595,0.39371 -0.588769,-0.0793 -0.424294,-0.44582 -0.722582,-0.56159 -1.210879,-0.46999 -0.548388,0.10288 -1.235608,0.87097 -1.366982,1.527839 -0.07718,0.3859 0.08945,0.74469 0.392267,0.84463 0.556265,0.18358 1.181751,-0.0897 1.91838,-0.83809 0.278865,-0.283329 0.539075,-0.515139 0.578246,-0.515139 0.125625,0 0.30786,0.23108 0.531298,0.673709 0.300295,0.59488 0.618998,0.85385 0.989634,0.80413 0.408567,-0.0548 0.803572,-0.40395 1.487482,-1.314809 0.412365,-0.54921 0.598961,-0.86244 0.598961,-1.00544 0,-0.15622 0.03641,-0.20772 0.146858,-0.20772 0.304087,0 0.714784,1.04162 0.902044,2.287779 0.129526,0.86197 0.159239,0.97073 0.233263,0.85385 0.03614,-0.0571 0.06622,-0.22324 0.06686,-0.36928 0.003,-0.69982 0.623942,-2.213739 1.057599,-2.578629 0.179266,-0.15085 0.311902,-0.19372 0.599294,-0.19372 0.321065,0 0.409626,0.0366 0.680796,0.28128 0.326691,0.2948 0.513815,0.6393 0.513815,0.94594 0,0.25126 0.11868,0.2758 0.750976,0.15532 0.951133,-0.18123 1.505023,-0.51112 2.121052,-1.26329 0.193083,-0.23576 0.353376,-0.21384 0.353376,0.0483 0,0.0873 -0.0871,0.41104 -0.193549,0.71946 -0.524703,1.520209 -0.0216,2.170519 1.230262,1.590249 0.422635,-0.1959 0.659336,-0.3943 1.513605,-1.268699 1.640509,-1.67916 2.431915,-2.0229 3.459749,-1.50275 0.337351,0.17073 0.637332,0.51902 0.702475,0.81562 0.106695,0.48577 -0.128021,0.50063 -0.519039,0.0328 -0.470998,-0.56347 -0.988034,-0.69105 -1.599992,-0.3948 -0.974378,0.47168 -1.414007,1.990489 -0.649223,2.242889 0.559428,0.18462 1.183181,-0.0871 1.921346,-0.83712 0.278865,-0.283319 0.539076,-0.515129 0.578246,-0.515129 0.125625,0 0.307861,0.23108 0.531298,0.673709 0.300296,0.59488 0.618998,0.85385 0.989634,0.80413 0.414201,-0.0555 0.80458,-0.40554 1.530758,-1.372359 0.353441,-0.47057 0.665253,-0.85506 0.692915,-0.85443 0.158882,0.004 0.254091,0.14883 0.210769,0.32144 -0.05087,0.20267 -0.76229,1.195599 -1.226726,1.712139 -0.597163,0.66414 -1.2306,0.89494 -1.73721,0.63297 -0.250118,-0.12935 -0.705489,-0.62049 -0.869681,-0.938 -0.06528,-0.12623 -0.138173,-0.22951 -0.161993,-0.22951 -0.02382,0 -0.217041,0.15687 -0.429378,0.3486 -0.799711,0.72208 -1.837792,0.98846 -2.434434,0.6247 -0.27959,-0.17047 -0.535288,-0.65824 -0.53781,-1.02594 l -0.0016,-0.240159 -0.513676,0.506589 c -1.124076,1.10858 -2.07525,1.47372 -2.715332,1.04237 -0.370159,-0.24945 -0.514833,-0.55503 -0.569617,-1.20314 l -0.04826,-0.570869 -0.22869,0.11826 c -0.366008,0.189269 -1.237627,0.467779 -1.624622,0.519119 -0.455421,0.0604 -0.476105,0.0771 -0.593567,0.4787 -0.122658,0.41937 -0.583231,0.90196 -0.860807,0.90196 -0.281931,0 -0.496386,-0.24615 -0.496386,-0.56974 0,-0.33492 0.206389,-0.63378 0.647053,-0.93697 0.310223,-0.21344 0.333057,-0.25076 0.2869,-0.468979 -0.02758,-0.1304 -0.120804,-0.36473 -0.207159,-0.52075 -0.297307,-0.53712 -0.763207,-0.44269 -1.124517,0.22793 -0.472582,0.877149 -0.723946,2.503829 -0.877928,5.681439 -0.108572,2.24051 -0.212095,3.35775 -0.321058,3.46493 -0.06306,0.062 -0.13131,0.0666 -0.222268,0.015 z m 2.506908,-7.54209 c 0.07545,-0.0683 0.136106,-0.19486 0.134802,-0.28129 -0.0022,-0.14558 -0.016,-0.14165 -0.187523,0.0533 -0.275351,0.31299 -0.234831,0.48821 0.05272,0.22798 z M 51.009959,99.447121 c 0.332585,-0.20505 0.493203,-0.46308 0.434313,-0.69771 -0.07537,-0.3003 -0.325092,-0.2367 -0.733218,0.18672 -0.243785,0.25293 -0.361258,0.4385 -0.361258,0.57071 0,0.17618 0.02076,0.19072 0.206276,0.14442 0.113452,-0.0283 0.317701,-0.12018 0.453887,-0.20414 z m -2.520114,8.880719 c -0.43396,-0.43396 -0.765377,-3.48657 -0.765377,-7.04974 v -1.898869 l -0.339674,0.2337 c -0.414407,0.28512 -1.045762,0.570289 -1.416669,0.639869 -0.170188,0.0319 -0.324331,0.1231 -0.403432,0.23863 -0.300728,0.43922 -0.749121,0.87751 -1.028123,1.00495 -0.890927,0.40695 -1.581252,-0.0777 -1.669081,-1.17192 l -0.03782,-0.471219 -0.421706,0.187239 c -0.231939,0.10299 -0.684642,0.28451 -1.006007,0.40339 -0.321365,0.11888 -0.766521,0.30236 -0.989237,0.40772 l -0.404937,0.19156 0.04362,0.52034 c 0.05519,0.65823 -0.107583,1.14242 -0.455325,1.35446 -0.322162,0.19645 -0.472243,0.18093 -0.728482,-0.0753 -0.381677,-0.38168 -0.281951,-1.09803 0.234795,-1.68657 l 0.247792,-0.28222 -0.211584,-0.6497 -0.211583,-0.649699 -0.233101,0.29536 c -1.020192,1.292659 -1.494031,1.691899 -2.008023,1.691899 -0.162407,0 -0.38897,-0.0484 -0.503473,-0.10765 -0.250118,-0.12935 -0.705489,-0.62049 -0.869681,-0.938 -0.06528,-0.12623 -0.138174,-0.22951 -0.161994,-0.22951 -0.02382,0 -0.21704,0.15687 -0.429377,0.3486 -0.80018,0.7225 -1.837755,0.98848 -2.435177,0.62424 -0.534026,-0.32558 -0.673489,-1.1672 -0.315841,-1.906009 0.597809,-1.2349 1.958102,-1.73362 2.928046,-1.07349 0.476041,0.32399 0.768957,0.97124 0.48828,1.07895 -0.09451,0.0363 -0.212414,-0.0472 -0.435864,-0.30863 -0.492386,-0.57605 -0.994909,-0.70225 -1.610199,-0.40439 -0.974378,0.47168 -1.414008,1.990489 -0.649223,2.242889 0.559427,0.18462 1.183181,-0.0871 1.921346,-0.83711 0.278865,-0.283329 0.539075,-0.515139 0.578246,-0.515139 0.125625,0 0.30786,0.23108 0.531298,0.673709 0.298939,0.5922 0.619367,0.8538 0.98562,0.80467 0.381836,-0.0512 0.743258,-0.34618 1.300547,-1.061409 0.698515,-0.89649 0.77658,-1.04683 0.735016,-1.41559 -0.07677,-0.68109 0.233146,-1.21699 0.752536,-1.30127 0.498464,-0.0809 0.793042,0.0303 1.225303,0.46258 0.347664,0.34766 0.402346,0.44175 0.402346,0.69227 0,0.54515 -0.316686,0.59265 -0.456219,0.0684 -0.09373,-0.35212 -0.239541,-0.54166 -0.533753,-0.6938 -0.305154,-0.1578 -0.49867,-0.12792 -0.741013,0.11442 -0.273478,0.27348 -0.276047,0.43274 -0.02321,1.43861 0.207699,0.826289 0.357266,1.192489 0.487051,1.192489 0.04354,0 0.553226,-0.18722 1.132625,-0.41606 1.737402,-0.686169 2.241516,-0.987509 2.386384,-1.426459 0.126903,-0.38452 0.394865,-0.55778 0.862664,-0.55778 0.713959,0 1.337862,0.58455 1.440478,1.34961 0.0358,0.26688 0.06311,0.3006 0.24349,0.3006 0.29681,0 1.035989,-0.39512 1.446035,-0.77297 l 0.356294,-0.32831 v -2.64431 -2.6443 l -0.393799,0.0516 c -0.935678,0.12252 -2.399578,0.42369 -3.08461,0.63461 -0.707249,0.21776 -1.248495,0.29237 -1.246033,0.17176 0.005,-0.24451 0.494167,-0.45451 1.851748,-0.79494 0.889455,-0.22304 2.066044,-0.44621 2.722676,-0.51642 l 0.187523,-0.02 0.05112,-1.35017 c 0.06536,-1.72643 0.102839,-1.98775 0.285061,-1.98775 0.215198,0 0.247687,0.32258 0.187099,1.8577 l -0.0549,1.39087 0.628416,-0.0544 c 2.640284,-0.22872 4.560324,-0.1639 5.080102,0.1715 0.150442,0.0971 0.07153,0.35002 -0.104015,0.33342 -1.807299,-0.17089 -2.24406,-0.19005 -3.372548,-0.1479 -1.219978,0.0456 -2.105822,0.14234 -2.20426,0.24083 -0.02531,0.0253 -0.04602,2.34694 -0.04602,5.15916 0,5.399369 0.05197,6.616279 0.354497,8.301009 0.206461,1.14975 0.239136,1.49913 0.148667,1.5896 -0.05081,0.0508 -0.124729,0.0265 -0.225348,-0.0741 z m -9.035373,-5.88477 c 0.18118,-0.22828 0.19293,-0.95637 0.01543,-0.95637 -0.09999,0 -0.371517,0.5643 -0.371517,0.77211 0,0.27861 0.19934,0.38176 0.356082,0.18426 z m 4.841898,-1.35774 c 0.133399,-0.0557 0.356053,-0.23063 0.494788,-0.38864 l 0.252243,-0.28729 -0.468594,-0.12827 c -0.257727,-0.0705 -0.61589,-0.23209 -0.795918,-0.358989 -0.311233,-0.21938 -0.331076,-0.22371 -0.403649,-0.0881 -0.113445,0.211969 -0.09239,0.728929 0.04012,0.985169 0.178901,0.34596 0.475501,0.43555 0.881013,0.26612 z m 0.938499,-1.449349 c 0.03106,-0.21806 -0.233689,-0.72277 -0.481294,-0.91753 -0.597488,-0.46999 -1.27037,0.23904 -0.723318,0.76217 0.272713,0.26079 0.516867,0.35336 0.88136,0.33417 0.244872,-0.0129 0.304305,-0.0458 0.323252,-0.17881 z m -28.773371,5.437109 c -0.05002,-0.05 -0.09095,-0.23402 -0.09095,-0.40889 0,-0.42644 0.302888,-2.1613 0.708975,-4.06082 0.603495,-2.822909 0.672792,-3.432149 0.675931,-5.942529 0.0023,-1.8515 -0.01955,-2.323 -0.133899,-2.88786 -0.221483,-1.09405 -0.551675,-1.68771 -0.938702,-1.68771 -0.655379,0 -1.555029,1.14093 -2.111514,2.67781 -0.09261,0.25576 -0.227147,0.51821 -0.298972,0.58321 -0.116739,0.10565 -0.140638,0.10608 -0.225324,0.004 -0.286754,-0.34552 0.895329,-2.74361 1.645122,-3.33745 1.054033,-0.83481 1.803889,-0.49747 2.245114,1.01001 0.205061,0.70061 0.289937,1.45103 0.350653,3.10026 0.02784,0.75627 0.07452,1.34697 0.103727,1.31266 0.02921,-0.0343 0.181648,-0.38304 0.338756,-0.77497 1.216429,-3.03453 2.517861,-4.47741 3.782791,-4.19393 0.438426,0.0983 0.715254,0.30596 0.95656,0.71772 0.47654,0.81315 0.631166,1.74209 0.628571,3.77625 -0.0018,1.38313 -0.029,1.89835 -0.196297,3.71296 -0.05808,0.63003 0.03418,0.58547 0.232961,-0.11251 0.471655,-1.6561 1.530097,-3.98427 2.421175,-5.32566 1.175143,-1.76901 2.260288,-2.4435 3.106752,-1.93104 0.780804,0.47271 1.032874,1.37532 1.033845,3.702 5.25e-4,1.32035 -0.112901,2.80465 -0.343368,4.49232 -0.180689,1.323139 -0.706553,4.478389 -0.790709,4.744339 -0.08382,0.26489 -0.314448,0.33511 -0.396693,0.12078 -0.02596,-0.0677 0.12048,-1.1731 0.325422,-2.45656 0.646773,-4.050459 0.711419,-4.658099 0.715087,-6.721599 0.003,-1.70749 -0.0088,-1.87618 -0.167268,-2.38024 -0.336099,-1.06922 -0.934169,-1.40286 -1.671263,-0.93232 -1.377809,0.87955 -2.939434,3.97905 -4.201032,8.338189 -0.542336,1.8739 -0.640977,2.11522 -0.852258,2.08502 -0.136557,-0.0195 -0.158605,-0.0822 -0.178559,-0.50777 -0.01252,-0.26702 0.06313,-1.27965 0.168118,-2.250279 0.47355,-4.37812 0.466207,-6.16501 -0.03127,-7.61096 -0.201889,-0.5868 -0.406894,-0.84773 -0.745808,-0.94927 -0.846187,-0.25353 -1.920125,0.80576 -2.935002,2.89497 -0.899687,1.85207 -1.315699,3.31579 -1.829877,6.438349 -0.401629,2.43905 -0.662087,3.71124 -0.888968,4.34213 -0.173063,0.48123 -0.260703,0.57047 -0.411824,0.41935 z m 56.091806,-7.618139 c 0.0011,-0.18848 0.327476,-0.86236 0.478071,-0.98695 0.213806,-0.17687 0.286034,-0.005 0.165738,0.39497 -0.05884,0.1955 -0.1612,0.43821 -0.227471,0.53935 -0.140666,0.21468 -0.417438,0.24967 -0.416338,0.0526 z"
        id="path7703" /></g></svg>
